<svg id="social-media" xmlns="http://www.w3.org/2000/svg" width="23.531" height="23.53" viewBox="0 0 23.531 23.53">
  <defs>
    <style>
      .cls-1 {
        fill: #aaeff9;
        fill-rule: evenodd;
      }
    </style>
  </defs>
  <path id="Subtraction_19" data-name="Subtraction 19" class="cls-1" d="M219.081,4468.21a11.681,11.681,0,0,1-6.207-1.78l-4.9,1.75a0.464,0.464,0,0,1-.165.03,0.531,0.531,0,0,1-.177-0.03,0.5,0.5,0,0,1-.281-0.64l1.83-4.75a11.765,11.765,0,0,1,9.9-18.11h0.01A11.765,11.765,0,1,1,219.081,4468.21Zm-3.431-17.64a2.931,2.931,0,0,0-2.45,2.94c0,1.53,1.841,4.49,3.083,5.73s4.2,3.09,5.738,3.09h0.031a2.946,2.946,0,0,0,2.91-2.45v-0.98a0.482,0.482,0,0,0-.274-0.44c-0.011-.01-1.2-0.59-1.952-0.98a1.051,1.051,0,0,0-.522-0.13,2.944,2.944,0,0,0-1.8.98,6.1,6.1,0,0,1-1.968-1.25,5.832,5.832,0,0,1-1.248-1.97c0.5-.51,1.279-1.48.848-2.32-0.389-.76-0.979-1.95-0.98-1.95a0.482,0.482,0,0,0-.437-0.27h-0.98Z" transform="translate(-207.313 -4444.69)"/>
</svg>
